<?xml version="1.0" encoding="utf-8"?>
<!-- Generator: Adobe Illustrator 16.0.0, SVG Export Plug-In . SVG Version: 6.00 Build 0)  -->
<!DOCTYPE svg PUBLIC "-//W3C//DTD SVG 1.1//EN" "http://www.w3.org/Graphics/SVG/1.1/DTD/svg11.dtd">
<svg version="1.1" id="Layer_1" xmlns="http://www.w3.org/2000/svg" xmlns:xlink="http://www.w3.org/1999/xlink" x="0px" y="0px"
	 width="277.149px" height="695.375px" viewBox="0 0 277.149 695.375" enable-background="new 0 0 277.149 695.375"
	 xml:space="preserve">
<g id="XMLID_1_">
	<g>
		<path fill="#CCCCCC" d="M235.14,569.3l41.76,78.891l-2.23,46.939l-39.64-63.03l-23.82-9.71l0.1-0.229
			C220.5,607.12,228.54,589.29,235.14,569.3z"/>
		<path fill="#310F31" d="M22.6,436.17c0-48.88,7.19-94.29,19.52-132.08l0.04-0.13h193.28l0.04,0.13
			c12.34,37.79,19.53,83.2,19.53,132.08c0,49.31-7.32,95.13-19.87,133.13l-0.11-0.21l-23.72,53.07
			c-19.87,32.55-45.08,52.01-72.51,52.01c-27.62,0-53-19.74-72.94-52.71l0.08-0.03l-23.82-53.31l-0.02,0.04
			C29.78,530.38,22.6,484.99,22.6,436.17z M116.15,425.8c0,0,8.87-41.28,0-50.14c-4.38-4.38-14.53,7.96-24.85,7.8
			c-10.57-0.17-21.3-12.74-25.29-7.8c-5.17,6.399-3.56,25.99-1.83,38.71c0.9,6.66,1.83,11.43,1.83,11.43h22.98H116.15z"/>
		<polygon fill="#CCCCCC" points="235.16,303.09 235.44,303.96 42.16,303.96 138.8,0.38 		"/>
		<path fill="#CCCCCC" d="M42.12,568.12l23.82,53.31l-0.08,0.03c-9.17-15.18-17.2-33.16-23.76-53.3L42.12,568.12z"/>
		<path fill="#CCCCCC" d="M65.86,621.46l-23.74,9.68L2.48,694.16l-2.23-46.931L42.1,568.16C48.66,588.3,56.69,606.28,65.86,621.46z"
			/>
		<path fill="#CCCCCC" d="M235.03,569.09l0.11,0.21c-6.6,19.99-14.64,37.82-23.83,52.86L235.03,569.09z"/>
		<path fill="#FFFFFF" d="M88.99,425.8H66.01c0,0-0.93-4.77-1.83-11.43l1.52-0.07c0,0,3.37-4.399,4.5-4.67
			c2.8-0.67,2.12,4.67,2.12,4.67l0.11,0.021c-0.19,0.949-0.18,2.08,0.06,3.449c0.57,3.32,4.5,7.881,4.5,7.881h12V425.8z"/>
		<path fill="#FFFFFF" d="M74.59,415.21c-0.44,0.08-0.74,0.5-0.66,0.94c0.08,0.439,0.5,0.739,0.94,0.659
			c0.44-0.069,0.74-0.489,0.66-0.93C75.46,415.43,75.03,415.13,74.59,415.21z M72.49,417.77c-0.24-1.369-0.25-2.5-0.06-3.449
			c0.65-3.391,3.81-4.33,7.87-5.03c4.08-0.71,7.86-0.99,9.83,1.99c0.54,0.81,0.94,1.87,1.17,3.22c0.78,4.49-2.31,11.15-2.31,11.15
			h-12C76.99,425.65,73.06,421.09,72.49,417.77z M79.63,415.99c0.44-0.08,0.73-0.5,0.66-0.94c-0.08-0.439-0.5-0.74-0.94-0.66
			c-0.44,0.07-0.74,0.49-0.66,0.94C78.76,415.77,79.18,416.07,79.63,415.99z"/>
		<path d="M80.3,409.29c-4.06,0.7-7.22,1.64-7.87,5.03l-0.11-0.021c0,0,0.68-5.34-2.12-4.67c-1.13,0.271-4.5,4.67-4.5,4.67
			c2.2-11.55,10.42-13.29,17.29-10.859c7.8,2.75,7.3,7.739,7.3,7.739l-0.16,0.101C88.16,408.3,84.38,408.58,80.3,409.29z"/>
		<path fill="#FFFFFF" d="M82.99,403.44c-6.87-2.431-15.09-0.69-17.29,10.859l-1.52,0.07c-1.73-12.72-3.34-32.311,1.83-38.71
			c3.99-4.94,14.72,7.63,25.29,7.8c10.32,0.16,20.47-12.18,24.85-7.8c8.87,8.859,0,50.14,0,50.14H88.99v-0.149
			c0,0,3.09-6.66,2.31-11.15c-0.23-1.35-0.63-2.41-1.17-3.22l0.16-0.101C90.29,411.18,90.79,406.19,82.99,403.44z"/>
		<path d="M80.29,415.05c0.07,0.44-0.22,0.86-0.66,0.94c-0.45,0.08-0.87-0.221-0.94-0.66c-0.08-0.45,0.22-0.87,0.66-0.94
			C79.79,414.31,80.21,414.61,80.29,415.05z"/>
		<path d="M75.53,415.88c0.08,0.44-0.22,0.86-0.66,0.93c-0.44,0.08-0.86-0.22-0.94-0.659c-0.08-0.44,0.22-0.86,0.66-0.94
			S75.46,415.43,75.53,415.88z"/>
	</g>
	<g>
		<path fill="none" stroke="#000000" stroke-width="0.8" stroke-linejoin="bevel" stroke-miterlimit="10" d="M76.99,425.65
			c0,0-3.93-4.561-4.5-7.881c-0.24-1.369-0.25-2.5-0.06-3.449c0.65-3.391,3.81-4.33,7.87-5.03c4.08-0.71,7.86-0.99,9.83,1.99
			c0.54,0.81,0.94,1.87,1.17,3.22c0.78,4.49-2.31,11.15-2.31,11.15"/>
		<path fill="none" stroke="#000000" stroke-width="0.5" stroke-miterlimit="10" d="M90.29,411.18c0,0,0.5-4.989-7.3-7.739
			c-6.87-2.431-15.09-0.69-17.29,10.859c0,0,3.37-4.399,4.5-4.67c2.8-0.67,2.12,4.67,2.12,4.67"/>
	</g>
</g>
<path fill="none" stroke="#000000" stroke-width="0.2" stroke-miterlimit="10" d="M74.729,422.62c0,0,2.899,0.292,4.592,0.063
	c1.333-0.181,3.417-1.306,3.417-1.306"/>
</svg>
